<svg width="100%" height="100%" viewBox="0 0 550.35522 597.04072">
  <g id="Sunny_frame" inkscape:label="#g3440">
    <path inkscape:label="#path3395" style="fill:#d3bc32;fill-opacity:1;fill-rule:evenodd;stroke:#ffeeaa;stroke-width:0.67981327px;stroke-linecap:butt;stroke-linejoin:miter;stroke-opacity:1" d="M 131.92643,492.0019 16.158661,505.3503 35.732921,398.97518 Z" id="T_6" inkscape:connector-curvature="0">
      <g inkscape:label="#g3409" id="Sunny">
        <path style="fill:#ffee57;fill-opacity:1;fill-rule:evenodd;stroke:#ffeeaa;stroke-width:0.67981327px;stroke-linecap:butt;stroke-linejoin:miter;stroke-opacity:1" d="M 33.790958,274.10797 14.402048,159.19746 121.65582,173.17768 Z" id="T_8" inkscape:connector-curvature="0" inkscape:label="#path3377">
          <path inkscape:connector-curvature="0" id="T_1" d="m 129.64705,172.59542 70.81701,-92.548928 62.92242,87.974938 z" style="fill:#ffed7b;fill-opacity:1;fill-rule:evenodd;stroke:#ffeeaa;stroke-width:0.67981327px;stroke-linecap:butt;stroke-linejoin:miter;stroke-opacity:1" inkscape:label="#path3381">
            <path style="fill:#c8ab37;fill-rule:evenodd;stroke:#ffeeaa;stroke-width:0.67981327px;stroke-linecap:butt;stroke-linejoin:miter;stroke-opacity:1" d="m 268.76557,485.13409 -74.00378,90.02107 -59.81381,-90.11731 z" id="T_5" inkscape:connector-curvature="0" inkscape:label="#path3385">
              <path inkscape:connector-curvature="0" id="T_4" d="M 379.52804,384.56634 398.91695,499.47685 291.66318,485.49663 Z" style="fill:#aa8800;fill-rule:evenodd;stroke:#ffeeaa;stroke-width:0.67981327px;stroke-linecap:butt;stroke-linejoin:miter;stroke-opacity:1" inkscape:label="#path3387">
                <path style="fill:#e9dd68;fill-opacity:1;fill-rule:evenodd;stroke:#ffeeaa;stroke-width:0.67981327px;stroke-linecap:butt;stroke-linejoin:miter;stroke-opacity:1" d="M 32.922365,397.1244 -57.098704,323.12062 33.018605,263.30681 Z" id="T_7" inkscape:connector-curvature="0" inkscape:label="#path3389">
                  <path inkscape:connector-curvature="0" id="T_3" d="m 362.67222,248.09978 99.44433,60.75508 -80.91579,71.77361 z" style="fill:#d3bc5f;fill-rule:evenodd;stroke:#ffeeaa;stroke-width:0.67981327px;stroke-linecap:butt;stroke-linejoin:miter;stroke-opacity:1" inkscape:label="#path3391">
                    <path style="fill:#e9dd68;fill-opacity:1;fill-rule:evenodd;stroke:#ffeeaa;stroke-width:0.67981327px;stroke-linecap:butt;stroke-linejoin:miter;stroke-opacity:1" d="m 270.49421,164.02871 115.76777,-13.3484 -19.57426,106.37512 z" id="T_2" inkscape:connector-curvature="0" inkscape:label="#path3393">
                      <g transform="matrix(0.60967128,0,0,0.53801723,-68.078634,-77.72004)" id="Cloud_2" style="opacity:0.54500002" inkscape:label="#g4327">
                        <a clip-path="url(#clipPath4298)" transform="translate(-55,-26)" id="a4329" style="fill:#000000;fill-opacity:0.31468584;stroke:#000000;stroke-opacity:0.27972029">
                          <g id="g4331" transform="matrix(0.99717419,-0.07512415,0.07512415,0.99717419,8.4711705,39.040974)" style="fill:#000000;fill-opacity:0.31468584;stroke:#000000;stroke-opacity:0.27972029">
                            <path inkscape:connector-curvature="0" id="path4333" style="fill:#000000;fill-opacity:0.31468584;stroke:#000000;stroke-width:0.40407968;stroke-opacity:0.27972029" d="m 400.89796,372.36221 c 0.52913,15.69148 -17.80199,27.0155 -31.81485,20.53778 -13.71972,-4.92329 -18.67043,-24.20586 -8.59643,-34.90252 9.75465,-12.1173 31.14645,-9.81395 37.92015,4.25048 1.62791,3.10569 2.49483,6.60769 2.49113,10.11426 z m -111.73469,-20 c 0.77031,24.6287 -26.51787,43.39064 -49.44129,35.50343 -23.53013,-5.92383 -35.11935,-37.01164 -20.21948,-56.48738 13.47102,-20.4661 46.5247,-21.55894 61.39181,-2.1171 5.2923,6.45379 8.29317,14.7491 8.26896,23.10105 z m 36,-35 c 0.77031,24.6287 -26.51787,43.39064 -49.44129,35.50343 -23.53013,-5.92383 -35.11935,-37.01164 -20.21948,-56.48738 13.47102,-20.4661 46.5247,-21.55894 61.39181,-2.1171 5.2923,6.45379 8.29317,14.7491 8.26896,23.10105 z m 52,29 c 0.77031,24.6287 -26.51787,43.39064 -49.44129,35.50343 -23.53013,-5.92383 -35.11935,-37.01164 -20.21948,-56.48738 13.47102,-20.4661 46.5247,-21.55894 61.39181,-2.1171 5.2923,6.45379 8.29317,14.7491 8.26896,23.10105 z m -15.16327,23 c 0.30093,37.45741 -42.82861,61.45543 -76.43569,50.63284 -34.5913,-7.02032 -55.02593,-52.25649 -31.25911,-80.55889 23.13431,-31.11744 76.0854,-30.54168 98.34159,1.29003 5.95869,8.28262 9.38151,18.41184 9.35321,28.63602 z">
                            </path></g>
                        </a>
                        <a id="a4335" transform="translate(-60,-32)" clip-path="url(#clipPath4298)">
                          <g transform="matrix(0.99717419,-0.07512415,0.07512415,0.99717419,8.4711705,39.040974)" id="g4337">
                            <path id="path4339" style="fill:#ffffff;fill-opacity:1;stroke:#ffffff;stroke-width:0.40407968" d="m 400.89796,372.36221 c 0.52913,15.69148 -17.80199,27.0155 -31.81485,20.53778 -13.71972,-4.92329 -18.67043,-24.20586 -8.59643,-34.90252 9.75465,-12.1173 31.14645,-9.81395 37.92015,4.25048 1.62791,3.10569 2.49483,6.60769 2.49113,10.11426 z m -111.73469,-20 c 0.77031,24.6287 -26.51787,43.39064 -49.44129,35.50343 -23.53013,-5.92383 -35.11935,-37.01164 -20.21948,-56.48738 13.47102,-20.4661 46.5247,-21.55894 61.39181,-2.1171 5.2923,6.45379 8.29317,14.7491 8.26896,23.10105 z m 36,-35 c 0.77031,24.6287 -26.51787,43.39064 -49.44129,35.50343 -23.53013,-5.92383 -35.11935,-37.01164 -20.21948,-56.48738 13.47102,-20.4661 46.5247,-21.55894 61.39181,-2.1171 5.2923,6.45379 8.29317,14.7491 8.26896,23.10105 z m 52,29 c 0.77031,24.6287 -26.51787,43.39064 -49.44129,35.50343 -23.53013,-5.92383 -35.11935,-37.01164 -20.21948,-56.48738 13.47102,-20.4661 46.5247,-21.55894 61.39181,-2.1171 5.2923,6.45379 8.29317,14.7491 8.26896,23.10105 z m -15.16327,23 c 0.30093,37.45741 -42.82861,61.45543 -76.43569,50.63284 -34.5913,-7.02032 -55.02593,-52.25649 -31.25911,-80.55889 23.13431,-31.11744 76.0854,-30.54168 98.34159,1.29003 5.95869,8.28262 9.38151,18.41184 9.35321,28.63602 z" inkscape:connector-curvature="0">
                            </path></g>
                        </a>
                      </g>
                      <g id="Cloud_3" transform="matrix(0.37341969,0,0,0.35724136,205.05799,-85.87136)" style="opacity:0.18999999" inkscape:label="#g4341">
                        <a style="fill:#000000;fill-opacity:0.31468584;stroke:#000000;stroke-opacity:0.27972029" id="a4343" transform="translate(-55,-26)" clip-path="url(#clipPath4298)">
                          <g style="fill:#000000;fill-opacity:0.31468584;stroke:#000000;stroke-opacity:0.27972029" transform="matrix(0.99717419,-0.07512415,0.07512415,0.99717419,8.4711705,39.040974)" id="g4345">
                            <path d="m 400.89796,372.36221 c 0.52913,15.69148 -17.80199,27.0155 -31.81485,20.53778 -13.71972,-4.92329 -18.67043,-24.20586 -8.59643,-34.90252 9.75465,-12.1173 31.14645,-9.81395 37.92015,4.25048 1.62791,3.10569 2.49483,6.60769 2.49113,10.11426 z m -111.73469,-20 c 0.77031,24.6287 -26.51787,43.39064 -49.44129,35.50343 -23.53013,-5.92383 -35.11935,-37.01164 -20.21948,-56.48738 13.47102,-20.4661 46.5247,-21.55894 61.39181,-2.1171 5.2923,6.45379 8.29317,14.7491 8.26896,23.10105 z m 36,-35 c 0.77031,24.6287 -26.51787,43.39064 -49.44129,35.50343 -23.53013,-5.92383 -35.11935,-37.01164 -20.21948,-56.48738 13.47102,-20.4661 46.5247,-21.55894 61.39181,-2.1171 5.2923,6.45379 8.29317,14.7491 8.26896,23.10105 z m 52,29 c 0.77031,24.6287 -26.51787,43.39064 -49.44129,35.50343 -23.53013,-5.92383 -35.11935,-37.01164 -20.21948,-56.48738 13.47102,-20.4661 46.5247,-21.55894 61.39181,-2.1171 5.2923,6.45379 8.29317,14.7491 8.26896,23.10105 z m -15.16327,23 c 0.30093,37.45741 -42.82861,61.45543 -76.43569,50.63284 -34.5913,-7.02032 -55.02593,-52.25649 -31.25911,-80.55889 23.13431,-31.11744 76.0854,-30.54168 98.34159,1.29003 5.95869,8.28262 9.38151,18.41184 9.35321,28.63602 z" style="fill:#000000;fill-opacity:0.31468584;stroke:#000000;stroke-width:0.40407968;stroke-opacity:0.27972029" id="path4347" inkscape:connector-curvature="0">
                            </path></g>
                        </a>
                        <a clip-path="url(#clipPath4298)" transform="translate(-60,-32)" id="a4349">
                          <g id="g4351" transform="matrix(0.99717419,-0.07512415,0.07512415,0.99717419,8.4711705,39.040974)">
                            <path inkscape:connector-curvature="0" d="m 400.89796,372.36221 c 0.52913,15.69148 -17.80199,27.0155 -31.81485,20.53778 -13.71972,-4.92329 -18.67043,-24.20586 -8.59643,-34.90252 9.75465,-12.1173 31.14645,-9.81395 37.92015,4.25048 1.62791,3.10569 2.49483,6.60769 2.49113,10.11426 z m -111.73469,-20 c 0.77031,24.6287 -26.51787,43.39064 -49.44129,35.50343 -23.53013,-5.92383 -35.11935,-37.01164 -20.21948,-56.48738 13.47102,-20.4661 46.5247,-21.55894 61.39181,-2.1171 5.2923,6.45379 8.29317,14.7491 8.26896,23.10105 z m 36,-35 c 0.77031,24.6287 -26.51787,43.39064 -49.44129,35.50343 -23.53013,-5.92383 -35.11935,-37.01164 -20.21948,-56.48738 13.47102,-20.4661 46.5247,-21.55894 61.39181,-2.1171 5.2923,6.45379 8.29317,14.7491 8.26896,23.10105 z m 52,29 c 0.77031,24.6287 -26.51787,43.39064 -49.44129,35.50343 -23.53013,-5.92383 -35.11935,-37.01164 -20.21948,-56.48738 13.47102,-20.4661 46.5247,-21.55894 61.39181,-2.1171 5.2923,6.45379 8.29317,14.7491 8.26896,23.10105 z m -15.16327,23 c 0.30093,37.45741 -42.82861,61.45543 -76.43569,50.63284 -34.5913,-7.02032 -55.02593,-52.25649 -31.25911,-80.55889 23.13431,-31.11744 76.0854,-30.54168 98.34159,1.29003 5.95869,8.28262 9.38151,18.41184 9.35321,28.63602 z" style="fill:#ffffff;fill-opacity:1;stroke:#ffffff;stroke-width:0.40407968" id="path4353">
                            </path></g>
                        </a>
                      </g>
                      <ellipse style="fill:#ffe300;fill-opacity:1" id="Sun" cx="202.85715" cy="329.50507" rx="188.57143" ry="177.14285" inkscape:label="#path3375">
                        <g id="Cloud_1" transform="translate(-20.281696,34.718308)" inkscape:label="#g4319">
                          <a style="fill:#000000;fill-opacity:0.31468584;stroke:#000000;stroke-opacity:0.27972029" id="a4302" transform="translate(-55,-26)" clip-path="url(#clipPath4298)">
                            <g style="fill:#000000;fill-opacity:0.31468584;stroke:#000000;stroke-opacity:0.27972029" transform="matrix(0.99717419,-0.07512415,0.07512415,0.99717419,8.4711705,39.040974)" id="g4304">
                              <path d="m 400.89796,372.36221 c 0.52913,15.69148 -17.80199,27.0155 -31.81485,20.53778 -13.71972,-4.92329 -18.67043,-24.20586 -8.59643,-34.90252 9.75465,-12.1173 31.14645,-9.81395 37.92015,4.25048 1.62791,3.10569 2.49483,6.60769 2.49113,10.11426 z m -111.73469,-20 c 0.77031,24.6287 -26.51787,43.39064 -49.44129,35.50343 -23.53013,-5.92383 -35.11935,-37.01164 -20.21948,-56.48738 13.47102,-20.4661 46.5247,-21.55894 61.39181,-2.1171 5.2923,6.45379 8.29317,14.7491 8.26896,23.10105 z m 36,-35 c 0.77031,24.6287 -26.51787,43.39064 -49.44129,35.50343 -23.53013,-5.92383 -35.11935,-37.01164 -20.21948,-56.48738 13.47102,-20.4661 46.5247,-21.55894 61.39181,-2.1171 5.2923,6.45379 8.29317,14.7491 8.26896,23.10105 z m 52,29 c 0.77031,24.6287 -26.51787,43.39064 -49.44129,35.50343 -23.53013,-5.92383 -35.11935,-37.01164 -20.21948,-56.48738 13.47102,-20.4661 46.5247,-21.55894 61.39181,-2.1171 5.2923,6.45379 8.29317,14.7491 8.26896,23.10105 z m -15.16327,23 c 0.30093,37.45741 -42.82861,61.45543 -76.43569,50.63284 -34.5913,-7.02032 -55.02593,-52.25649 -31.25911,-80.55889 23.13431,-31.11744 76.0854,-30.54168 98.34159,1.29003 5.95869,8.28262 9.38151,18.41184 9.35321,28.63602 z" style="fill:#000000;fill-opacity:0.31468584;stroke:#000000;stroke-width:0.40407968;stroke-opacity:0.27972029" id="path4314" inkscape:connector-curvature="0">
                              </path></g>
                          </a>
                          <a clip-path="url(#clipPath4298)" transform="translate(-60,-32)" id="a4237">
                            <g id="g4210" transform="matrix(0.99717419,-0.07512415,0.07512415,0.99717419,8.4711705,39.040974)">
                              <path inkscape:connector-curvature="0" d="m 400.89796,372.36221 c 0.52913,15.69148 -17.80199,27.0155 -31.81485,20.53778 -13.71972,-4.92329 -18.67043,-24.20586 -8.59643,-34.90252 9.75465,-12.1173 31.14645,-9.81395 37.92015,4.25048 1.62791,3.10569 2.49483,6.60769 2.49113,10.11426 z m -111.73469,-20 c 0.77031,24.6287 -26.51787,43.39064 -49.44129,35.50343 -23.53013,-5.92383 -35.11935,-37.01164 -20.21948,-56.48738 13.47102,-20.4661 46.5247,-21.55894 61.39181,-2.1171 5.2923,6.45379 8.29317,14.7491 8.26896,23.10105 z m 36,-35 c 0.77031,24.6287 -26.51787,43.39064 -49.44129,35.50343 -23.53013,-5.92383 -35.11935,-37.01164 -20.21948,-56.48738 13.47102,-20.4661 46.5247,-21.55894 61.39181,-2.1171 5.2923,6.45379 8.29317,14.7491 8.26896,23.10105 z m 52,29 c 0.77031,24.6287 -26.51787,43.39064 -49.44129,35.50343 -23.53013,-5.92383 -35.11935,-37.01164 -20.21948,-56.48738 13.47102,-20.4661 46.5247,-21.55894 61.39181,-2.1171 5.2923,6.45379 8.29317,14.7491 8.26896,23.10105 z m -15.16327,23 c 0.30093,37.45741 -42.82861,61.45543 -76.43569,50.63284 -34.5913,-7.02032 -55.02593,-52.25649 -31.25911,-80.55889 23.13431,-31.11744 76.0854,-30.54168 98.34159,1.29003 5.95869,8.28262 9.38151,18.41184 9.35321,28.63602 z" style="fill:#ffffff;fill-opacity:1;stroke:#ffffff;stroke-width:0.40407968" id="ellipse4205">
                              </path></g>
                          </a>
                        </g>
                      </ellipse></path></path></path></path></path></path></path></g>
    </path></g>
</svg>
