
<?xml version="1.0" encoding="UTF-8" standalone="no"?>
<!-- Created with Inkscape (http://www.inkscape.org/) -->

<svg
  xmlns:dc="http://purl.org/dc/elements/1.1/"
  xmlns:cc="http://creativecommons.org/ns#"
  xmlns:rdf="http://www.w3.org/1999/02/22-rdf-syntax-ns#"
  xmlns:svg="http://www.w3.org/2000/svg"
  xmlns="http://www.w3.org/2000/svg"
  xmlns:sodipodi="http://sodipodi.sourceforge.net/DTD/sodipodi-0.dtd"
  xmlns:inkscape="http://www.inkscape.org/namespaces/inkscape"
  width="100%"
  height="100%"
  viewBox="0 0 550.35522 597.04072"
  id="svg2"
  version="1.1"
  inkscape:version="0.91 r13725"
  sodipodi:docname="sun_2.svg">
  <defs
    id="defs4">
    <clipPath
      clipPathUnits="userSpaceOnUse"
      id="clipPath4298">
      <rect
        style="fill:#ffffff;fill-opacity:1;stroke:#ffffff;stroke-width:1.21258259"
        id="rect4300"
        width="244.78741"
        height="114.78741"
        x="224.10629"
        y="275.46851" />
    </clipPath>
  </defs>
  <sodipodi:namedview
    id="base"
    pagecolor="#ffffff"
    bordercolor="#666666"
    borderopacity="1.0"
    inkscape:pageopacity="0.0"
    inkscape:pageshadow="2"
    inkscape:zoom="1.2223971"
    inkscape:cx="297.42699"
    inkscape:cy="233.35782"
    inkscape:document-units="px"
    inkscape:current-layer="Rainy_frame"
    showgrid="false"
    inkscape:window-width="1243"
    inkscape:window-height="764"
    inkscape:window-x="539"
    inkscape:window-y="1080"
    inkscape:window-maximized="0"
    fit-margin-top="1"
    fit-margin-left="1"
    fit-margin-right="1"
    fit-margin-bottom="1"
    units="pc" />
  <metadata
    id="metadata7">
    <rdf:RDF>
      <cc:Work
        rdf:about="">
        <dc:format>image/svg+xml</dc:format>
        <dc:type
          rdf:resource="http://purl.org/dc/dcmitype/StillImage" />
        <dc:title></dc:title>
      </cc:Work>
    </rdf:RDF>
  </metadata>
  <g
    inkscape:label="Layer 1"
    inkscape:groupmode="layer"
    id="layer1"
    transform="translate(72.669428,6.3148653)"
    style="display:inline">
    <g
      id="Sunny_frame"
      inkscape:label="#g3440">
      <path
        inkscape:label="#path3395"
        style="fill:#d3bc32;fill-opacity:1;fill-rule:evenodd;stroke:#ffeeaa;stroke-width:0.67981327px;stroke-linecap:butt;stroke-linejoin:miter;stroke-opacity:1"
        d="M 131.92643,492.0019 16.158661,505.3503 35.732921,398.97518 Z"
        id="T_6"
        inkscape:connector-curvature="0" />
      <g
        inkscape:label="#g3409"
        id="Sunny">
        <path
          style="fill:#ffee57;fill-opacity:1;fill-rule:evenodd;stroke:#ffeeaa;stroke-width:0.67981327px;stroke-linecap:butt;stroke-linejoin:miter;stroke-opacity:1"
          d="M 33.790958,274.10797 14.402048,159.19746 121.65582,173.17768 Z"
          id="T_8"
          inkscape:connector-curvature="0"
          inkscape:label="#path3377" />
        <path
          inkscape:connector-curvature="0"
          id="T_1"
          d="m 129.64705,172.59542 70.81701,-92.548928 62.92242,87.974938 z"
          style="fill:#ffed7b;fill-opacity:1;fill-rule:evenodd;stroke:#ffeeaa;stroke-width:0.67981327px;stroke-linecap:butt;stroke-linejoin:miter;stroke-opacity:1"
          inkscape:label="#path3381" />
        <path
          style="fill:#c8ab37;fill-rule:evenodd;stroke:#ffeeaa;stroke-width:0.67981327px;stroke-linecap:butt;stroke-linejoin:miter;stroke-opacity:1"
          d="m 268.76557,485.13409 -74.00378,90.02107 -59.81381,-90.11731 z"
          id="T_5"
          inkscape:connector-curvature="0"
          inkscape:label="#path3385" />
        <path
          inkscape:connector-curvature="0"
          id="T_4"
          d="M 379.52804,384.56634 398.91695,499.47685 291.66318,485.49663 Z"
          style="fill:#aa8800;fill-rule:evenodd;stroke:#ffeeaa;stroke-width:0.67981327px;stroke-linecap:butt;stroke-linejoin:miter;stroke-opacity:1"
          inkscape:label="#path3387" />
        <path
          style="fill:#e9dd68;fill-opacity:1;fill-rule:evenodd;stroke:#ffeeaa;stroke-width:0.67981327px;stroke-linecap:butt;stroke-linejoin:miter;stroke-opacity:1"
          d="M 32.922365,397.1244 -57.098704,323.12062 33.018605,263.30681 Z"
          id="T_7"
          inkscape:connector-curvature="0"
          inkscape:label="#path3389" />
        <path
          inkscape:connector-curvature="0"
          id="T_3"
          d="m 362.67222,248.09978 99.44433,60.75508 -80.91579,71.77361 z"
          style="fill:#d3bc5f;fill-rule:evenodd;stroke:#ffeeaa;stroke-width:0.67981327px;stroke-linecap:butt;stroke-linejoin:miter;stroke-opacity:1"
          inkscape:label="#path3391" />
        <path
          style="fill:#e9dd68;fill-opacity:1;fill-rule:evenodd;stroke:#ffeeaa;stroke-width:0.67981327px;stroke-linecap:butt;stroke-linejoin:miter;stroke-opacity:1"
          d="m 270.49421,164.02871 115.76777,-13.3484 -19.57426,106.37512 z"
          id="T_2"
          inkscape:connector-curvature="0"
          inkscape:label="#path3393" />
        <g
          transform="matrix(0.60967128,0,0,0.53801723,-68.078634,-77.72004)"
          id="Cloud_2"
          style="opacity:0.54500002"
          inkscape:label="#g4327">
          <a
            clip-path="url(#clipPath4298)"
            transform="translate(-55,-26)"
            id="a4329"
            style="fill:#000000;fill-opacity:0.31468584;stroke:#000000;stroke-opacity:0.27972029">
            <g
              id="g4331"
              transform="matrix(0.99717419,-0.07512415,0.07512415,0.99717419,8.4711705,39.040974)"
              style="fill:#000000;fill-opacity:0.31468584;stroke:#000000;stroke-opacity:0.27972029">
              <path
                inkscape:connector-curvature="0"
                id="path4333"
                style="fill:#000000;fill-opacity:0.31468584;stroke:#000000;stroke-width:0.40407968;stroke-opacity:0.27972029"
                d="m 400.89796,372.36221 c 0.52913,15.69148 -17.80199,27.0155 -31.81485,20.53778 -13.71972,-4.92329 -18.67043,-24.20586 -8.59643,-34.90252 9.75465,-12.1173 31.14645,-9.81395 37.92015,4.25048 1.62791,3.10569 2.49483,6.60769 2.49113,10.11426 z m -111.73469,-20 c 0.77031,24.6287 -26.51787,43.39064 -49.44129,35.50343 -23.53013,-5.92383 -35.11935,-37.01164 -20.21948,-56.48738 13.47102,-20.4661 46.5247,-21.55894 61.39181,-2.1171 5.2923,6.45379 8.29317,14.7491 8.26896,23.10105 z m 36,-35 c 0.77031,24.6287 -26.51787,43.39064 -49.44129,35.50343 -23.53013,-5.92383 -35.11935,-37.01164 -20.21948,-56.48738 13.47102,-20.4661 46.5247,-21.55894 61.39181,-2.1171 5.2923,6.45379 8.29317,14.7491 8.26896,23.10105 z m 52,29 c 0.77031,24.6287 -26.51787,43.39064 -49.44129,35.50343 -23.53013,-5.92383 -35.11935,-37.01164 -20.21948,-56.48738 13.47102,-20.4661 46.5247,-21.55894 61.39181,-2.1171 5.2923,6.45379 8.29317,14.7491 8.26896,23.10105 z m -15.16327,23 c 0.30093,37.45741 -42.82861,61.45543 -76.43569,50.63284 -34.5913,-7.02032 -55.02593,-52.25649 -31.25911,-80.55889 23.13431,-31.11744 76.0854,-30.54168 98.34159,1.29003 5.95869,8.28262 9.38151,18.41184 9.35321,28.63602 z" />
            </g>
          </a>
          <a
            id="a4335"
            transform="translate(-60,-32)"
            clip-path="url(#clipPath4298)">
            <g
              transform="matrix(0.99717419,-0.07512415,0.07512415,0.99717419,8.4711705,39.040974)"
              id="g4337">
              <path
                id="path4339"
                style="fill:#ffffff;fill-opacity:1;stroke:#ffffff;stroke-width:0.40407968"
                d="m 400.89796,372.36221 c 0.52913,15.69148 -17.80199,27.0155 -31.81485,20.53778 -13.71972,-4.92329 -18.67043,-24.20586 -8.59643,-34.90252 9.75465,-12.1173 31.14645,-9.81395 37.92015,4.25048 1.62791,3.10569 2.49483,6.60769 2.49113,10.11426 z m -111.73469,-20 c 0.77031,24.6287 -26.51787,43.39064 -49.44129,35.50343 -23.53013,-5.92383 -35.11935,-37.01164 -20.21948,-56.48738 13.47102,-20.4661 46.5247,-21.55894 61.39181,-2.1171 5.2923,6.45379 8.29317,14.7491 8.26896,23.10105 z m 36,-35 c 0.77031,24.6287 -26.51787,43.39064 -49.44129,35.50343 -23.53013,-5.92383 -35.11935,-37.01164 -20.21948,-56.48738 13.47102,-20.4661 46.5247,-21.55894 61.39181,-2.1171 5.2923,6.45379 8.29317,14.7491 8.26896,23.10105 z m 52,29 c 0.77031,24.6287 -26.51787,43.39064 -49.44129,35.50343 -23.53013,-5.92383 -35.11935,-37.01164 -20.21948,-56.48738 13.47102,-20.4661 46.5247,-21.55894 61.39181,-2.1171 5.2923,6.45379 8.29317,14.7491 8.26896,23.10105 z m -15.16327,23 c 0.30093,37.45741 -42.82861,61.45543 -76.43569,50.63284 -34.5913,-7.02032 -55.02593,-52.25649 -31.25911,-80.55889 23.13431,-31.11744 76.0854,-30.54168 98.34159,1.29003 5.95869,8.28262 9.38151,18.41184 9.35321,28.63602 z"
                inkscape:connector-curvature="0" />
            </g>
          </a>
        </g>
        <g
          id="Cloud_3"
          transform="matrix(0.37341969,0,0,0.35724136,205.05799,-85.87136)"
          style="opacity:0.18999999"
          inkscape:label="#g4341">
          <a
            style="fill:#000000;fill-opacity:0.31468584;stroke:#000000;stroke-opacity:0.27972029"
            id="a4343"
            transform="translate(-55,-26)"
            clip-path="url(#clipPath4298)">
            <g
              style="fill:#000000;fill-opacity:0.31468584;stroke:#000000;stroke-opacity:0.27972029"
              transform="matrix(0.99717419,-0.07512415,0.07512415,0.99717419,8.4711705,39.040974)"
              id="g4345">
              <path
                d="m 400.89796,372.36221 c 0.52913,15.69148 -17.80199,27.0155 -31.81485,20.53778 -13.71972,-4.92329 -18.67043,-24.20586 -8.59643,-34.90252 9.75465,-12.1173 31.14645,-9.81395 37.92015,4.25048 1.62791,3.10569 2.49483,6.60769 2.49113,10.11426 z m -111.73469,-20 c 0.77031,24.6287 -26.51787,43.39064 -49.44129,35.50343 -23.53013,-5.92383 -35.11935,-37.01164 -20.21948,-56.48738 13.47102,-20.4661 46.5247,-21.55894 61.39181,-2.1171 5.2923,6.45379 8.29317,14.7491 8.26896,23.10105 z m 36,-35 c 0.77031,24.6287 -26.51787,43.39064 -49.44129,35.50343 -23.53013,-5.92383 -35.11935,-37.01164 -20.21948,-56.48738 13.47102,-20.4661 46.5247,-21.55894 61.39181,-2.1171 5.2923,6.45379 8.29317,14.7491 8.26896,23.10105 z m 52,29 c 0.77031,24.6287 -26.51787,43.39064 -49.44129,35.50343 -23.53013,-5.92383 -35.11935,-37.01164 -20.21948,-56.48738 13.47102,-20.4661 46.5247,-21.55894 61.39181,-2.1171 5.2923,6.45379 8.29317,14.7491 8.26896,23.10105 z m -15.16327,23 c 0.30093,37.45741 -42.82861,61.45543 -76.43569,50.63284 -34.5913,-7.02032 -55.02593,-52.25649 -31.25911,-80.55889 23.13431,-31.11744 76.0854,-30.54168 98.34159,1.29003 5.95869,8.28262 9.38151,18.41184 9.35321,28.63602 z"
                style="fill:#000000;fill-opacity:0.31468584;stroke:#000000;stroke-width:0.40407968;stroke-opacity:0.27972029"
                id="path4347"
                inkscape:connector-curvature="0" />
            </g>
          </a>
          <a
            clip-path="url(#clipPath4298)"
            transform="translate(-60,-32)"
            id="a4349">
            <g
              id="g4351"
              transform="matrix(0.99717419,-0.07512415,0.07512415,0.99717419,8.4711705,39.040974)">
              <path
                inkscape:connector-curvature="0"
                d="m 400.89796,372.36221 c 0.52913,15.69148 -17.80199,27.0155 -31.81485,20.53778 -13.71972,-4.92329 -18.67043,-24.20586 -8.59643,-34.90252 9.75465,-12.1173 31.14645,-9.81395 37.92015,4.25048 1.62791,3.10569 2.49483,6.60769 2.49113,10.11426 z m -111.73469,-20 c 0.77031,24.6287 -26.51787,43.39064 -49.44129,35.50343 -23.53013,-5.92383 -35.11935,-37.01164 -20.21948,-56.48738 13.47102,-20.4661 46.5247,-21.55894 61.39181,-2.1171 5.2923,6.45379 8.29317,14.7491 8.26896,23.10105 z m 36,-35 c 0.77031,24.6287 -26.51787,43.39064 -49.44129,35.50343 -23.53013,-5.92383 -35.11935,-37.01164 -20.21948,-56.48738 13.47102,-20.4661 46.5247,-21.55894 61.39181,-2.1171 5.2923,6.45379 8.29317,14.7491 8.26896,23.10105 z m 52,29 c 0.77031,24.6287 -26.51787,43.39064 -49.44129,35.50343 -23.53013,-5.92383 -35.11935,-37.01164 -20.21948,-56.48738 13.47102,-20.4661 46.5247,-21.55894 61.39181,-2.1171 5.2923,6.45379 8.29317,14.7491 8.26896,23.10105 z m -15.16327,23 c 0.30093,37.45741 -42.82861,61.45543 -76.43569,50.63284 -34.5913,-7.02032 -55.02593,-52.25649 -31.25911,-80.55889 23.13431,-31.11744 76.0854,-30.54168 98.34159,1.29003 5.95869,8.28262 9.38151,18.41184 9.35321,28.63602 z"
                style="fill:#ffffff;fill-opacity:1;stroke:#ffffff;stroke-width:0.40407968"
                id="path4353" />
            </g>
          </a>
        </g>
        <ellipse
          style="fill:#ffe300;fill-opacity:1"
          id="Sun"
          cx="202.85715"
          cy="329.50507"
          rx="188.57143"
          ry="177.14285"
          inkscape:label="#path3375" />
        <g
          id="Cloud_1"
          transform="translate(-20.281696,34.718308)"
          inkscape:label="#g4319">
          <a
            style="fill:#000000;fill-opacity:0.31468584;stroke:#000000;stroke-opacity:0.27972029"
            id="a4302"
            transform="translate(-55,-26)"
            clip-path="url(#clipPath4298)">
            <g
              style="fill:#000000;fill-opacity:0.31468584;stroke:#000000;stroke-opacity:0.27972029"
              transform="matrix(0.99717419,-0.07512415,0.07512415,0.99717419,8.4711705,39.040974)"
              id="g4304">
              <path
                d="m 400.89796,372.36221 c 0.52913,15.69148 -17.80199,27.0155 -31.81485,20.53778 -13.71972,-4.92329 -18.67043,-24.20586 -8.59643,-34.90252 9.75465,-12.1173 31.14645,-9.81395 37.92015,4.25048 1.62791,3.10569 2.49483,6.60769 2.49113,10.11426 z m -111.73469,-20 c 0.77031,24.6287 -26.51787,43.39064 -49.44129,35.50343 -23.53013,-5.92383 -35.11935,-37.01164 -20.21948,-56.48738 13.47102,-20.4661 46.5247,-21.55894 61.39181,-2.1171 5.2923,6.45379 8.29317,14.7491 8.26896,23.10105 z m 36,-35 c 0.77031,24.6287 -26.51787,43.39064 -49.44129,35.50343 -23.53013,-5.92383 -35.11935,-37.01164 -20.21948,-56.48738 13.47102,-20.4661 46.5247,-21.55894 61.39181,-2.1171 5.2923,6.45379 8.29317,14.7491 8.26896,23.10105 z m 52,29 c 0.77031,24.6287 -26.51787,43.39064 -49.44129,35.50343 -23.53013,-5.92383 -35.11935,-37.01164 -20.21948,-56.48738 13.47102,-20.4661 46.5247,-21.55894 61.39181,-2.1171 5.2923,6.45379 8.29317,14.7491 8.26896,23.10105 z m -15.16327,23 c 0.30093,37.45741 -42.82861,61.45543 -76.43569,50.63284 -34.5913,-7.02032 -55.02593,-52.25649 -31.25911,-80.55889 23.13431,-31.11744 76.0854,-30.54168 98.34159,1.29003 5.95869,8.28262 9.38151,18.41184 9.35321,28.63602 z"
                style="fill:#000000;fill-opacity:0.31468584;stroke:#000000;stroke-width:0.40407968;stroke-opacity:0.27972029"
                id="path4314"
                inkscape:connector-curvature="0" />
            </g>
          </a>
          <a
            clip-path="url(#clipPath4298)"
            transform="translate(-60,-32)"
            id="a4237">
            <g
              id="g4210"
              transform="matrix(0.99717419,-0.07512415,0.07512415,0.99717419,8.4711705,39.040974)">
              <path
                inkscape:connector-curvature="0"
                d="m 400.89796,372.36221 c 0.52913,15.69148 -17.80199,27.0155 -31.81485,20.53778 -13.71972,-4.92329 -18.67043,-24.20586 -8.59643,-34.90252 9.75465,-12.1173 31.14645,-9.81395 37.92015,4.25048 1.62791,3.10569 2.49483,6.60769 2.49113,10.11426 z m -111.73469,-20 c 0.77031,24.6287 -26.51787,43.39064 -49.44129,35.50343 -23.53013,-5.92383 -35.11935,-37.01164 -20.21948,-56.48738 13.47102,-20.4661 46.5247,-21.55894 61.39181,-2.1171 5.2923,6.45379 8.29317,14.7491 8.26896,23.10105 z m 36,-35 c 0.77031,24.6287 -26.51787,43.39064 -49.44129,35.50343 -23.53013,-5.92383 -35.11935,-37.01164 -20.21948,-56.48738 13.47102,-20.4661 46.5247,-21.55894 61.39181,-2.1171 5.2923,6.45379 8.29317,14.7491 8.26896,23.10105 z m 52,29 c 0.77031,24.6287 -26.51787,43.39064 -49.44129,35.50343 -23.53013,-5.92383 -35.11935,-37.01164 -20.21948,-56.48738 13.47102,-20.4661 46.5247,-21.55894 61.39181,-2.1171 5.2923,6.45379 8.29317,14.7491 8.26896,23.10105 z m -15.16327,23 c 0.30093,37.45741 -42.82861,61.45543 -76.43569,50.63284 -34.5913,-7.02032 -55.02593,-52.25649 -31.25911,-80.55889 23.13431,-31.11744 76.0854,-30.54168 98.34159,1.29003 5.95869,8.28262 9.38151,18.41184 9.35321,28.63602 z"
                style="fill:#ffffff;fill-opacity:1;stroke:#ffffff;stroke-width:0.40407968"
                id="ellipse4205" />
            </g>
          </a>
        </g>
      </g>
    </g>
    <text
       xml:space="preserve"
       style="font-style:normal;font-weight:normal;font-size:40px;line-height:125%;font-family:Sans;text-align:center;letter-spacing:-5.00000048px;word-spacing:0px;text-anchor:middle;fill:#000000;fill-opacity:1;stroke:none;stroke-width:1px;stroke-linecap:butt;stroke-linejoin:miter;stroke-opacity:1"
       x="206.47853"
       y="571.09229"
       id="text3373"
       sodipodi:linespacing="125%"><tspan
         sodipodi:role="line"
         id="tspan3375"
         x="206.47853"
         y="571.09229"
         style="font-style:normal;font-variant:normal;font-weight:bold;font-stretch:normal;font-family:sans-serif;-inkscape-font-specification:'sans-serif Bold';text-align:center;letter-spacing:0px;text-anchor:middle">{{cond}} {{temp}}°</tspan></text>
    <g
      id="Cloudy_frame"
      inkscape:label="#g4534">
      <g
        inkscape:label="#g4372"
        transform="translate(-18.815492,8.1806487)"
        id="CCloud_1">
        <g
          transform="translate(22.905817,58.082605)"
          id="g4364"
          style="fill:#000000;fill-opacity:0.09655169">
          <g
            id="g4366"
            transform="translate(1.6361297,-1.6361297)"
            style="fill:#000000;fill-opacity:0.09655169">
            <path
              inkscape:connector-curvature="0"
              id="path4368"
              d="m 183.38526,181.68965 a 45.815169,45.815165 0 0 0 -45.08008,37.88672 45.815169,45.815165 0 0 0 -9.73047,-1.07422 45.815169,45.815165 0 0 0 -43.070308,30.36328 85.900342,76.083563 0 0 0 -75.8632833,45.86524 45.815169,45.815165 0 0 0 -2.958985,-0.14844 45.815169,45.815165 0 0 0 -45.8144527,45.81641 45.815169,45.815165 0 0 0 14.6875,33.53906 l 462.148439,0 a 45.815169,45.815165 0 0 0 3.375,-17.17774 45.815169,45.815165 0 0 0 -26.57032,-41.52148 45.815169,45.815165 0 0 0 -39.79492,-39.90039 45.815169,45.815165 0 0 0 -35.2832,-41.67578 45.815169,45.815165 0 0 0 -44.78906,-36.42969 45.815169,45.815165 0 0 0 -33.54102,14.69141 45.815169,45.815165 0 0 0 -31.08594,-12.23633 45.815169,45.815165 0 0 0 -9.51367,1.05469 45.815169,45.815165 0 0 0 -37.11523,-19.05274 z"
              style="opacity:1;fill:#000000;fill-opacity:0.09655169;stroke:none;stroke-width:0.99290133;stroke-opacity:1" />
            <path
              style="opacity:1;fill:#000000;fill-opacity:0.09655169;stroke:none;stroke-width:0.99290133;stroke-opacity:1"
              d="m 183.38526,181.68965 a 45.815169,45.815165 0 0 0 -45.08008,37.88672 45.815169,45.815165 0 0 0 -9.73047,-1.07422 45.815169,45.815165 0 0 0 -43.070308,30.36328 85.900342,76.083563 0 0 0 -75.8632833,45.86524 45.815169,45.815165 0 0 0 -2.958985,-0.14844 45.815169,45.815165 0 0 0 -45.8144527,45.81641 45.815169,45.815165 0 0 0 14.6875,33.53906 l 462.148439,0 a 45.815169,45.815165 0 0 0 3.375,-17.17774 45.815169,45.815165 0 0 0 -26.57032,-41.52148 45.815169,45.815165 0 0 0 -39.79492,-39.90039 45.815169,45.815165 0 0 0 -35.2832,-41.67578 45.815169,45.815165 0 0 0 -44.78906,-36.42969 45.815169,45.815165 0 0 0 -33.54102,14.69141 45.815169,45.815165 0 0 0 -31.08594,-12.23633 45.815169,45.815165 0 0 0 -9.51367,1.05469 45.815169,45.815165 0 0 0 -37.11523,-19.05274 z"
              id="path4370"
              inkscape:connector-curvature="0" />
          </g>
        </g>
        <g
          id="g4326"
          transform="translate(16.361297,49.901956)">
          <g
            transform="translate(1.6361297,-1.6361297)"
            id="g4295">
            <path
              style="opacity:1;fill:#ececec;fill-opacity:1;stroke:none;stroke-width:0.99290133;stroke-opacity:1"
              d="m 183.38526,181.68965 a 45.815169,45.815165 0 0 0 -45.08008,37.88672 45.815169,45.815165 0 0 0 -9.73047,-1.07422 45.815169,45.815165 0 0 0 -43.070308,30.36328 85.900342,76.083563 0 0 0 -75.8632833,45.86524 45.815169,45.815165 0 0 0 -2.958985,-0.14844 45.815169,45.815165 0 0 0 -45.8144527,45.81641 45.815169,45.815165 0 0 0 14.6875,33.53906 l 462.148439,0 a 45.815169,45.815165 0 0 0 3.375,-17.17774 45.815169,45.815165 0 0 0 -26.57032,-41.52148 45.815169,45.815165 0 0 0 -39.79492,-39.90039 45.815169,45.815165 0 0 0 -35.2832,-41.67578 45.815169,45.815165 0 0 0 -44.78906,-36.42969 45.815169,45.815165 0 0 0 -33.54102,14.69141 45.815169,45.815165 0 0 0 -31.08594,-12.23633 45.815169,45.815165 0 0 0 -9.51367,1.05469 45.815169,45.815165 0 0 0 -37.11523,-19.05274 z"
              id="ellipse4293"
              inkscape:connector-curvature="0" />
            <path
              inkscape:connector-curvature="0"
              id="path4344"
              d="m 183.38526,181.68965 a 45.815169,45.815165 0 0 0 -45.08008,37.88672 45.815169,45.815165 0 0 0 -9.73047,-1.07422 45.815169,45.815165 0 0 0 -43.070308,30.36328 85.900342,76.083563 0 0 0 -75.8632833,45.86524 45.815169,45.815165 0 0 0 -2.958985,-0.14844 45.815169,45.815165 0 0 0 -45.8144527,45.81641 45.815169,45.815165 0 0 0 14.6875,33.53906 l 462.148439,0 a 45.815169,45.815165 0 0 0 3.375,-17.17774 45.815169,45.815165 0 0 0 -26.57032,-41.52148 45.815169,45.815165 0 0 0 -39.79492,-39.90039 45.815169,45.815165 0 0 0 -35.2832,-41.67578 45.815169,45.815165 0 0 0 -44.78906,-36.42969 45.815169,45.815165 0 0 0 -33.54102,14.69141 45.815169,45.815165 0 0 0 -31.08594,-12.23633 45.815169,45.815165 0 0 0 -9.51367,1.05469 45.815169,45.815165 0 0 0 -37.11523,-19.05274 z"
              style="opacity:1;fill:#ececec;fill-opacity:1;stroke:none;stroke-width:0.99290133;stroke-opacity:1" />
          </g>
        </g>
      </g>
      <g
        inkscape:label="#g4382"
        id="CCloud_2"
        transform="matrix(0.411773,0,0,0.30613217,-24.703088,72.025765)">
        <g
          style="fill:#000000;fill-opacity:0.09655169"
          id="g4384"
          transform="translate(22.905817,58.082605)">
          <g
            style="fill:#000000;fill-opacity:0.09655169"
            transform="translate(1.6361297,-1.6361297)"
            id="g4386">
            <path
              style="opacity:1;fill:#000000;fill-opacity:0.09655169;stroke:none;stroke-width:0.99290133;stroke-opacity:1"
              d="m 183.38526,181.68965 a 45.815169,45.815165 0 0 0 -45.08008,37.88672 45.815169,45.815165 0 0 0 -9.73047,-1.07422 45.815169,45.815165 0 0 0 -43.070308,30.36328 85.900342,76.083563 0 0 0 -75.8632833,45.86524 45.815169,45.815165 0 0 0 -2.958985,-0.14844 45.815169,45.815165 0 0 0 -45.8144527,45.81641 45.815169,45.815165 0 0 0 14.6875,33.53906 l 462.148439,0 a 45.815169,45.815165 0 0 0 3.375,-17.17774 45.815169,45.815165 0 0 0 -26.57032,-41.52148 45.815169,45.815165 0 0 0 -39.79492,-39.90039 45.815169,45.815165 0 0 0 -35.2832,-41.67578 45.815169,45.815165 0 0 0 -44.78906,-36.42969 45.815169,45.815165 0 0 0 -33.54102,14.69141 45.815169,45.815165 0 0 0 -31.08594,-12.23633 45.815169,45.815165 0 0 0 -9.51367,1.05469 45.815169,45.815165 0 0 0 -37.11523,-19.05274 z"
              id="path4388"
              inkscape:connector-curvature="0" />
            <path
              inkscape:connector-curvature="0"
              id="path4390"
              d="m 183.38526,181.68965 a 45.815169,45.815165 0 0 0 -45.08008,37.88672 45.815169,45.815165 0 0 0 -9.73047,-1.07422 45.815169,45.815165 0 0 0 -43.070308,30.36328 85.900342,76.083563 0 0 0 -75.8632833,45.86524 45.815169,45.815165 0 0 0 -2.958985,-0.14844 45.815169,45.815165 0 0 0 -45.8144527,45.81641 45.815169,45.815165 0 0 0 14.6875,33.53906 l 462.148439,0 a 45.815169,45.815165 0 0 0 3.375,-17.17774 45.815169,45.815165 0 0 0 -26.57032,-41.52148 45.815169,45.815165 0 0 0 -39.79492,-39.90039 45.815169,45.815165 0 0 0 -35.2832,-41.67578 45.815169,45.815165 0 0 0 -44.78906,-36.42969 45.815169,45.815165 0 0 0 -33.54102,14.69141 45.815169,45.815165 0 0 0 -31.08594,-12.23633 45.815169,45.815165 0 0 0 -9.51367,1.05469 45.815169,45.815165 0 0 0 -37.11523,-19.05274 z"
              style="opacity:1;fill:#000000;fill-opacity:0.09655169;stroke:none;stroke-width:0.99290133;stroke-opacity:1" />
          </g>
        </g>
        <g
          transform="translate(16.361297,49.901956)"
          id="g4392">
          <g
            id="g4394"
            transform="translate(1.6361297,-1.6361297)">
            <path
              inkscape:connector-curvature="0"
              id="path4396"
              d="m 183.38526,181.68965 a 45.815169,45.815165 0 0 0 -45.08008,37.88672 45.815169,45.815165 0 0 0 -9.73047,-1.07422 45.815169,45.815165 0 0 0 -43.070308,30.36328 85.900342,76.083563 0 0 0 -75.8632833,45.86524 45.815169,45.815165 0 0 0 -2.958985,-0.14844 45.815169,45.815165 0 0 0 -45.8144527,45.81641 45.815169,45.815165 0 0 0 14.6875,33.53906 l 462.148439,0 a 45.815169,45.815165 0 0 0 3.375,-17.17774 45.815169,45.815165 0 0 0 -26.57032,-41.52148 45.815169,45.815165 0 0 0 -39.79492,-39.90039 45.815169,45.815165 0 0 0 -35.2832,-41.67578 45.815169,45.815165 0 0 0 -44.78906,-36.42969 45.815169,45.815165 0 0 0 -33.54102,14.69141 45.815169,45.815165 0 0 0 -31.08594,-12.23633 45.815169,45.815165 0 0 0 -9.51367,1.05469 45.815169,45.815165 0 0 0 -37.11523,-19.05274 z"
              style="opacity:1;fill:#ececec;fill-opacity:1;stroke:none;stroke-width:0.99290133;stroke-opacity:1" />
            <path
              style="opacity:1;fill:#ececec;fill-opacity:1;stroke:none;stroke-width:0.99290133;stroke-opacity:1"
              d="m 183.38526,181.68965 a 45.815169,45.815165 0 0 0 -45.08008,37.88672 45.815169,45.815165 0 0 0 -9.73047,-1.07422 45.815169,45.815165 0 0 0 -43.070308,30.36328 85.900342,76.083563 0 0 0 -75.8632833,45.86524 45.815169,45.815165 0 0 0 -2.958985,-0.14844 45.815169,45.815165 0 0 0 -45.8144527,45.81641 45.815169,45.815165 0 0 0 14.6875,33.53906 l 462.148439,0 a 45.815169,45.815165 0 0 0 3.375,-17.17774 45.815169,45.815165 0 0 0 -26.57032,-41.52148 45.815169,45.815165 0 0 0 -39.79492,-39.90039 45.815169,45.815165 0 0 0 -35.2832,-41.67578 45.815169,45.815165 0 0 0 -44.78906,-36.42969 45.815169,45.815165 0 0 0 -33.54102,14.69141 45.815169,45.815165 0 0 0 -31.08594,-12.23633 45.815169,45.815165 0 0 0 -9.51367,1.05469 45.815169,45.815165 0 0 0 -37.11523,-19.05274 z"
              id="path4398"
              inkscape:connector-curvature="0" />
          </g>
        </g>
      </g>
      <g
        inkscape:label="#g4400"
        transform="matrix(0.27059852,0,0,0.19184806,215.27848,17.317602)"
        id="CCloud_3">
        <g
          transform="translate(22.905817,58.082605)"
          id="g4402"
          style="fill:#000000;fill-opacity:0.09655169">
          <g
            id="g4404"
            transform="translate(1.6361297,-1.6361297)"
            style="fill:#000000;fill-opacity:0.09655169">
            <path
              inkscape:connector-curvature="0"
              id="path4406"
              d="m 183.38526,181.68965 a 45.815169,45.815165 0 0 0 -45.08008,37.88672 45.815169,45.815165 0 0 0 -9.73047,-1.07422 45.815169,45.815165 0 0 0 -43.070308,30.36328 85.900342,76.083563 0 0 0 -75.8632833,45.86524 45.815169,45.815165 0 0 0 -2.958985,-0.14844 45.815169,45.815165 0 0 0 -45.8144527,45.81641 45.815169,45.815165 0 0 0 14.6875,33.53906 l 462.148439,0 a 45.815169,45.815165 0 0 0 3.375,-17.17774 45.815169,45.815165 0 0 0 -26.57032,-41.52148 45.815169,45.815165 0 0 0 -39.79492,-39.90039 45.815169,45.815165 0 0 0 -35.2832,-41.67578 45.815169,45.815165 0 0 0 -44.78906,-36.42969 45.815169,45.815165 0 0 0 -33.54102,14.69141 45.815169,45.815165 0 0 0 -31.08594,-12.23633 45.815169,45.815165 0 0 0 -9.51367,1.05469 45.815169,45.815165 0 0 0 -37.11523,-19.05274 z"
              style="opacity:1;fill:#000000;fill-opacity:0.09655169;stroke:none;stroke-width:0.99290133;stroke-opacity:1" />
            <path
              style="opacity:1;fill:#000000;fill-opacity:0.09655169;stroke:none;stroke-width:0.99290133;stroke-opacity:1"
              d="m 183.38526,181.68965 a 45.815169,45.815165 0 0 0 -45.08008,37.88672 45.815169,45.815165 0 0 0 -9.73047,-1.07422 45.815169,45.815165 0 0 0 -43.070308,30.36328 85.900342,76.083563 0 0 0 -75.8632833,45.86524 45.815169,45.815165 0 0 0 -2.958985,-0.14844 45.815169,45.815165 0 0 0 -45.8144527,45.81641 45.815169,45.815165 0 0 0 14.6875,33.53906 l 462.148439,0 a 45.815169,45.815165 0 0 0 3.375,-17.17774 45.815169,45.815165 0 0 0 -26.57032,-41.52148 45.815169,45.815165 0 0 0 -39.79492,-39.90039 45.815169,45.815165 0 0 0 -35.2832,-41.67578 45.815169,45.815165 0 0 0 -44.78906,-36.42969 45.815169,45.815165 0 0 0 -33.54102,14.69141 45.815169,45.815165 0 0 0 -31.08594,-12.23633 45.815169,45.815165 0 0 0 -9.51367,1.05469 45.815169,45.815165 0 0 0 -37.11523,-19.05274 z"
              id="path4408"
              inkscape:connector-curvature="0" />
          </g>
        </g>
        <g
          id="g4410"
          transform="translate(16.361297,49.901956)">
          <g
            transform="translate(1.6361297,-1.6361297)"
            id="g4412">
            <path
              style="opacity:1;fill:#ececec;fill-opacity:1;stroke:none;stroke-width:0.99290133;stroke-opacity:1"
              d="m 183.38526,181.68965 a 45.815169,45.815165 0 0 0 -45.08008,37.88672 45.815169,45.815165 0 0 0 -9.73047,-1.07422 45.815169,45.815165 0 0 0 -43.070308,30.36328 85.900342,76.083563 0 0 0 -75.8632833,45.86524 45.815169,45.815165 0 0 0 -2.958985,-0.14844 45.815169,45.815165 0 0 0 -45.8144527,45.81641 45.815169,45.815165 0 0 0 14.6875,33.53906 l 462.148439,0 a 45.815169,45.815165 0 0 0 3.375,-17.17774 45.815169,45.815165 0 0 0 -26.57032,-41.52148 45.815169,45.815165 0 0 0 -39.79492,-39.90039 45.815169,45.815165 0 0 0 -35.2832,-41.67578 45.815169,45.815165 0 0 0 -44.78906,-36.42969 45.815169,45.815165 0 0 0 -33.54102,14.69141 45.815169,45.815165 0 0 0 -31.08594,-12.23633 45.815169,45.815165 0 0 0 -9.51367,1.05469 45.815169,45.815165 0 0 0 -37.11523,-19.05274 z"
              id="path4414"
              inkscape:connector-curvature="0" />
            <path
              inkscape:connector-curvature="0"
              id="path4416"
              d="m 183.38526,181.68965 a 45.815169,45.815165 0 0 0 -45.08008,37.88672 45.815169,45.815165 0 0 0 -9.73047,-1.07422 45.815169,45.815165 0 0 0 -43.070308,30.36328 85.900342,76.083563 0 0 0 -75.8632833,45.86524 45.815169,45.815165 0 0 0 -2.958985,-0.14844 45.815169,45.815165 0 0 0 -45.8144527,45.81641 45.815169,45.815165 0 0 0 14.6875,33.53906 l 462.148439,0 a 45.815169,45.815165 0 0 0 3.375,-17.17774 45.815169,45.815165 0 0 0 -26.57032,-41.52148 45.815169,45.815165 0 0 0 -39.79492,-39.90039 45.815169,45.815165 0 0 0 -35.2832,-41.67578 45.815169,45.815165 0 0 0 -44.78906,-36.42969 45.815169,45.815165 0 0 0 -33.54102,14.69141 45.815169,45.815165 0 0 0 -31.08594,-12.23633 45.815169,45.815165 0 0 0 -9.51367,1.05469 45.815169,45.815165 0 0 0 -37.11523,-19.05274 z"
              style="opacity:1;fill:#ececec;fill-opacity:1;stroke:none;stroke-width:0.99290133;stroke-opacity:1" />
          </g>
        </g>
      </g>
    </g>
    <g
      id="Rainy_frame">
      <rect
        inkscape:label="#rect4710"
        y="411.56961"
        x="7.5009193"
        height="189.79103"
        width="4.0903239"
        id="Drop_2"
        style="opacity:0.656;fill:#ffffff;fill-opacity:1;stroke:none;stroke-opacity:1" />
      <rect
        inkscape:label="#rect4712"
        style="opacity:0.656;fill:#ffffff;fill-opacity:1;stroke:none;stroke-opacity:1"
        id="Drop_4"
        width="4.0903239"
        height="189.79103"
        x="85.217079"
        y="412.38766" />
      <rect
        inkscape:label="#rect4714"
        y="400.1167"
        x="189.92938"
        height="189.79103"
        width="4.0903239"
        id="Drop_7"
        style="opacity:0.656;fill:#ffffff;fill-opacity:1;stroke:none;stroke-opacity:1" />
      <rect
        inkscape:label="#rect4716"
        style="opacity:0.656;fill:#ffffff;fill-opacity:1;stroke:none;stroke-opacity:1"
        id="Drop_9"
        width="4.0903239"
        height="189.79103"
        x="264.37329"
        y="411.56961" />
      <rect
        inkscape:label="#rect4718"
        y="427.11285"
        x="326.54623"
        height="189.79103"
        width="4.0903239"
        id="Drop_11"
        style="opacity:0.656;fill:#ffffff;fill-opacity:1;stroke:none;stroke-opacity:1" />
      <rect
        inkscape:label="#rect4720"
        style="opacity:0.656;fill:#ffffff;fill-opacity:1;stroke:none;stroke-opacity:1"
        id="Drop_8"
        width="4.0903239"
        height="189.79103"
        x="232.46878"
        y="413.20575" />
      <rect
        inkscape:label="#rect4722"
        y="406.66122"
        x="122.84809"
        height="189.79103"
        width="4.0903239"
        id="Drop_5"
        style="opacity:0.656;fill:#ffffff;fill-opacity:1;stroke:none;stroke-opacity:1" />
      <rect
        inkscape:label="#rect4724"
        style="opacity:0.656;fill:#ffffff;fill-opacity:1;stroke:none;stroke-opacity:1"
        id="Drop_3"
        width="4.0903239"
        height="189.79103"
        x="51.676449"
        y="412.38766" />
      <rect
        inkscape:label="#rect4726"
        y="401.75281"
        x="-43.219074"
        height="189.79103"
        width="4.0903239"
        id="Drop_1"
        style="opacity:0.656;fill:#ffffff;fill-opacity:1;stroke:none;stroke-opacity:1" />
      <rect
        inkscape:label="#rect4728"
        style="opacity:0.656;fill:#ffffff;fill-opacity:1;stroke:none;stroke-opacity:1"
        id="Drop_12"
        width="4.0903239"
        height="189.79103"
        x="380.53851"
        y="435.29346" />
      <rect
        inkscape:label="#rect4730"
        y="435.29346"
        x="432.89465"
        height="189.79103"
        width="4.0903239"
        id="Drop_13"
        style="opacity:0.656;fill:#ffffff;fill-opacity:1;stroke:none;stroke-opacity:1" />
      <rect
        inkscape:label="#rect4732"
        style="opacity:0.656;fill:#ffffff;fill-opacity:1;stroke:none;stroke-opacity:1"
        id="Drop_14"
        width="4.0903239"
        height="189.79103"
        x="459.89081"
        y="429.56702" />
      <rect
        inkscape:label="#rect4734"
        y="415.65991"
        x="288.91525"
        height="189.79103"
        width="4.0903239"
        id="Drop_10"
        style="opacity:0.656;fill:#ffffff;fill-opacity:1;stroke:none;stroke-opacity:1" />
      <rect
        inkscape:label="#rect4736"
        style="opacity:0.656;fill:#ffffff;fill-opacity:1;stroke:none;stroke-opacity:1"
        id="Drop_6"
        width="4.0903239"
        height="189.79103"
        x="152.29842"
        y="395.20828" />
      <g
        id="g4668">
        <g
          id="g4628"
          transform="translate(8.1806486,13.089038)"
          style="opacity:0.25;fill:#000000">
          <path
            style="opacity:1;fill:#000000;fill-opacity:1;stroke:none;stroke-opacity:1"
            id="path4630"
            sodipodi:type="arc"
            sodipodi:cx="45.131908"
            sodipodi:cy="302.767"
            sodipodi:rx="166.88521"
            sodipodi:ry="108.80261"
            sodipodi:start="0"
            sodipodi:end="6.1674002"
            sodipodi:open="true"
            d="M 212.01712,302.767 A 166.88521,108.80261 0 0 1 49.961939,411.52403 166.88521,108.80261 0 0 1 -121.47372,309.06234 166.88521,108.80261 0 0 1 30.657999,194.37437 166.88521,108.80261 0 0 1 210.89972,290.19741" />
          <path
            d="M 430.44044,297.85861 A 166.88521,108.80261 0 0 1 268.38527,406.61565 166.88521,108.80261 0 0 1 96.949612,304.15396 166.88521,108.80261 0 0 1 249.08133,189.46598 166.88521,108.80261 0 0 1 429.32305,285.28902"
            sodipodi:open="true"
            sodipodi:end="6.1674002"
            sodipodi:start="0"
            sodipodi:ry="108.80261"
            sodipodi:rx="166.88521"
            sodipodi:cy="297.85861"
            sodipodi:cx="263.55524"
            sodipodi:type="arc"
            id="path4632"
            style="opacity:1;fill:#000000;fill-opacity:1;stroke:none;stroke-opacity:1" />
          <path
            style="opacity:1;fill:#000000;fill-opacity:1;stroke:none;stroke-opacity:1"
            id="path4634"
            sodipodi:type="arc"
            sodipodi:cx="396.08176"
            sodipodi:cy="323.21863"
            sodipodi:rx="166.88521"
            sodipodi:ry="108.80261"
            sodipodi:start="0"
            sodipodi:end="6.1674002"
            sodipodi:open="true"
            d="M 562.96696,323.21863 A 166.88521,108.80261 0 0 1 400.91179,431.97566 166.88521,108.80261 0 0 1 229.47613,329.51397 166.88521,108.80261 0 0 1 381.60785,214.826 166.88521,108.80261 0 0 1 561.84957,310.64903" />
          <path
            d="M 71.309969,201.32695 A 44.993546,43.357422 0 0 1 27.618637,244.66621 44.993546,43.357422 0 0 1 -18.601744,203.83562 44.993546,43.357422 0 0 1 22.414145,158.1329 44.993546,43.357422 0 0 1 71.00871,196.31802"
            sodipodi:open="true"
            sodipodi:end="6.1674002"
            sodipodi:start="0"
            sodipodi:ry="43.357422"
            sodipodi:rx="44.993546"
            sodipodi:cy="201.32695"
            sodipodi:cx="26.316423"
            sodipodi:type="arc"
            id="path4636"
            style="opacity:1;fill:#000000;fill-opacity:1;stroke:none;stroke-opacity:1" />
          <path
            style="opacity:1;fill:#000000;fill-opacity:1;stroke:none;stroke-opacity:1"
            id="path4638"
            sodipodi:type="arc"
            sodipodi:cx="86.035156"
            sodipodi:cy="203.78114"
            sodipodi:rx="44.993546"
            sodipodi:ry="43.357422"
            sodipodi:start="0"
            sodipodi:end="6.1674002"
            sodipodi:open="true"
            d="M 131.0287,203.78114 A 44.993546,43.357422 0 0 1 87.33737,247.1204 44.993546,43.357422 0 0 1 41.116989,206.28981 44.993546,43.357422 0 0 1 82.132878,160.5871 44.993546,43.357422 0 0 1 130.72744,198.77221" />
          <path
            d="M 213.65326,189.87404 A 44.993546,43.357422 0 0 1 169.96193,233.2133 44.993546,43.357422 0 0 1 123.74155,192.38271 44.993546,43.357422 0 0 1 164.75744,146.67999 44.993546,43.357422 0 0 1 213.352,184.8651"
            sodipodi:open="true"
            sodipodi:end="6.1674002"
            sodipodi:start="0"
            sodipodi:ry="43.357422"
            sodipodi:rx="44.993546"
            sodipodi:cy="189.87404"
            sodipodi:cx="168.65971"
            sodipodi:type="arc"
            id="path4640"
            style="opacity:1;fill:#000000;fill-opacity:1;stroke:none;stroke-opacity:1" />
          <path
            style="opacity:1;fill:#000000;fill-opacity:1;stroke:none;stroke-opacity:1"
            id="path4642"
            sodipodi:type="arc"
            sodipodi:cx="226.74232"
            sodipodi:cy="192.32823"
            sodipodi:rx="44.993546"
            sodipodi:ry="43.357422"
            sodipodi:start="0"
            sodipodi:end="6.1674002"
            sodipodi:open="true"
            d="m 271.73587,192.32823 a 44.993546,43.357422 0 0 1 -43.69133,43.33926 44.993546,43.357422 0 0 1 -46.22038,-40.83059 44.993546,43.357422 0 0 1 41.01589,-45.70271 44.993546,43.357422 0 0 1 48.59456,38.18511" />
          <path
            d="m 340.45332,201.32695 a 44.993546,43.357422 0 0 1 -43.69133,43.33926 44.993546,43.357422 0 0 1 -46.22038,-40.83059 44.993546,43.357422 0 0 1 41.01589,-45.70272 44.993546,43.357422 0 0 1 48.59456,38.18512"
            sodipodi:open="true"
            sodipodi:end="6.1674002"
            sodipodi:start="0"
            sodipodi:ry="43.357422"
            sodipodi:rx="44.993546"
            sodipodi:cy="201.32695"
            sodipodi:cx="295.45978"
            sodipodi:type="arc"
            id="path4644"
            style="opacity:1;fill:#000000;fill-opacity:1;stroke:none;stroke-opacity:1" />
          <path
            style="opacity:1;fill:#000000;fill-opacity:1;stroke:none;stroke-opacity:1"
            id="path4646"
            sodipodi:type="arc"
            sodipodi:cx="355.99658"
            sodipodi:cy="212.77986"
            sodipodi:rx="44.993546"
            sodipodi:ry="43.357422"
            sodipodi:start="0"
            sodipodi:end="6.1674002"
            sodipodi:open="true"
            d="m 400.99013,212.77986 a 44.993546,43.357422 0 0 1 -43.69133,43.33926 44.993546,43.357422 0 0 1 -46.22039,-40.83059 44.993546,43.357422 0 0 1 41.01589,-45.70271 44.993546,43.357422 0 0 1 48.59457,38.18511" />
          <path
            d="m 480.34242,215.23405 a 44.993546,43.357422 0 0 1 -43.69133,43.33926 44.993546,43.357422 0 0 1 -46.22038,-40.83059 44.993546,43.357422 0 0 1 41.01589,-45.70271 44.993546,43.357422 0 0 1 48.59456,38.18511"
            sodipodi:open="true"
            sodipodi:end="6.1674002"
            sodipodi:start="0"
            sodipodi:ry="43.357422"
            sodipodi:rx="44.993546"
            sodipodi:cy="215.23405"
            sodipodi:cx="435.34888"
            sodipodi:type="arc"
            id="path4648"
            style="opacity:1;fill:#000000;fill-opacity:1;stroke:none;stroke-opacity:1" />
          <path
            style="opacity:1;fill:#000000;fill-opacity:1;stroke:none;stroke-opacity:1"
            id="path4650"
            sodipodi:type="arc"
            sodipodi:cx="374.81207"
            sodipodi:cy="190.69211"
            sodipodi:rx="44.993546"
            sodipodi:ry="43.357422"
            sodipodi:start="0"
            sodipodi:end="6.1674002"
            sodipodi:open="true"
            d="m 419.80562,190.69211 a 44.993546,43.357422 0 0 1 -43.69133,43.33926 44.993546,43.357422 0 0 1 -46.22038,-40.83059 44.993546,43.357422 0 0 1 41.01588,-45.70272 44.993546,43.357422 0 0 1 48.59457,38.18511" />
          <path
            d="m 360.08687,169.42242 a 44.993546,43.357422 0 0 1 -43.69133,43.33926 44.993546,43.357422 0 0 1 -46.22038,-40.83059 44.993546,43.357422 0 0 1 41.01588,-45.70271 44.993546,43.357422 0 0 1 48.59457,38.18511"
            sodipodi:open="true"
            sodipodi:end="6.1674002"
            sodipodi:start="0"
            sodipodi:ry="43.357422"
            sodipodi:rx="44.993546"
            sodipodi:cy="169.42242"
            sodipodi:cx="315.09332"
            sodipodi:type="arc"
            id="path4652"
            style="opacity:1;fill:#000000;fill-opacity:1;stroke:none;stroke-opacity:1" />
          <path
            style="opacity:1;fill:#000000;fill-opacity:1;stroke:none;stroke-opacity:1"
            id="path4654"
            sodipodi:type="arc"
            sodipodi:cx="257.01071"
            sodipodi:cy="150.60693"
            sodipodi:rx="44.993546"
            sodipodi:ry="43.357422"
            sodipodi:start="0"
            sodipodi:end="6.1674002"
            sodipodi:open="true"
            d="M 302.00426,150.60693 A 44.993546,43.357422 0 0 1 258.31293,193.94619 44.993546,43.357422 0 0 1 212.09254,153.1156 44.993546,43.357422 0 0 1 253.10843,107.41289 44.993546,43.357422 0 0 1 301.703,145.598" />
          <path
            d="m 227.56035,166.96823 a 44.993546,43.357422 0 0 1 -43.69133,43.33926 44.993546,43.357422 0 0 1 -46.22038,-40.83059 44.993546,43.357422 0 0 1 41.01588,-45.70271 44.993546,43.357422 0 0 1 48.59457,38.18511"
            sodipodi:open="true"
            sodipodi:end="6.1674002"
            sodipodi:start="0"
            sodipodi:ry="43.357422"
            sodipodi:rx="44.993546"
            sodipodi:cy="166.96823"
            sodipodi:cx="182.5668"
            sodipodi:type="arc"
            id="path4656"
            style="opacity:1;fill:#000000;fill-opacity:1;stroke:none;stroke-opacity:1" />
          <path
            style="opacity:1;fill:#000000;fill-opacity:1;stroke:none;stroke-opacity:1"
            id="path4658"
            sodipodi:type="arc"
            sodipodi:cx="106.48677"
            sodipodi:cy="140.79016"
            sodipodi:rx="44.993546"
            sodipodi:ry="43.357422"
            sodipodi:start="0"
            sodipodi:end="6.1674002"
            sodipodi:open="true"
            d="M 151.48032,140.79016 A 44.993546,43.357422 0 0 1 107.78898,184.12942 44.993546,43.357422 0 0 1 61.568603,143.29883 44.993546,43.357422 0 0 1 102.58449,97.596115 44.993546,43.357422 0 0 1 151.17906,135.78123" />
          <path
            d="M 90.943516,139.15404 A 44.993546,43.357422 0 0 1 47.252184,182.4933 44.993546,43.357422 0 0 1 1.0318027,141.66271 44.993546,43.357422 0 0 1 42.047692,95.959992 44.993546,43.357422 0 0 1 90.642257,134.1451"
            sodipodi:open="true"
            sodipodi:end="6.1674002"
            sodipodi:start="0"
            sodipodi:ry="43.357422"
            sodipodi:rx="44.993546"
            sodipodi:cy="139.15404"
            sodipodi:cx="45.94997"
            sodipodi:type="arc"
            id="path4660"
            style="opacity:1;fill:#000000;fill-opacity:1;stroke:none;stroke-opacity:1" />
          <path
            style="opacity:1;fill:#000000;fill-opacity:1;stroke:none;stroke-opacity:1"
            id="path4662"
            sodipodi:type="arc"
            sodipodi:cx="86.85321"
            sodipodi:cy="117.88435"
            sodipodi:rx="44.993546"
            sodipodi:ry="43.357422"
            sodipodi:start="0"
            sodipodi:end="6.1674002"
            sodipodi:open="true"
            d="M 131.84676,117.88435 A 44.993546,43.357422 0 0 1 88.155424,161.22361 44.993546,43.357422 0 0 1 41.935043,120.39302 44.993546,43.357422 0 0 1 82.950932,74.690308 44.993546,43.357422 0 0 1 131.5455,112.87542" />
          <path
            d="M 43.49575,180.05728 A 44.993546,43.357422 0 0 1 -0.19558135,223.39654 44.993546,43.357422 0 0 1 -46.415963,182.56595 44.993546,43.357422 0 0 1 -5.4000732,136.86324 44.993546,43.357422 0 0 1 43.194491,175.04835"
            sodipodi:open="true"
            sodipodi:end="6.1674002"
            sodipodi:start="0"
            sodipodi:ry="43.357422"
            sodipodi:rx="44.993546"
            sodipodi:cy="180.05728"
            sodipodi:cx="-1.4977951"
            sodipodi:type="arc"
            id="path4664"
            style="opacity:1;fill:#000000;fill-opacity:1;stroke:none;stroke-opacity:1" />
          <path
            style="opacity:1;fill:#000000;fill-opacity:1;stroke:none;stroke-opacity:1"
            id="path4666"
            sodipodi:type="arc"
            sodipodi:cx="39.405449"
            sodipodi:cy="110.52177"
            sodipodi:rx="44.993546"
            sodipodi:ry="43.357422"
            sodipodi:start="0"
            sodipodi:end="6.1674002"
            sodipodi:open="true"
            d="M 84.398994,110.52177 A 44.993546,43.357422 0 0 1 40.707663,153.86103 44.993546,43.357422 0 0 1 -5.5127187,113.03044 44.993546,43.357422 0 0 1 35.503171,67.327721 44.993546,43.357422 0 0 1 84.097735,105.51283" />
        </g>
        <g
          id="g4607">
          <path
            d="M 212.01712,302.767 A 166.88521,108.80261 0 0 1 49.961939,411.52403 166.88521,108.80261 0 0 1 -121.47372,309.06234 166.88521,108.80261 0 0 1 30.657999,194.37437 166.88521,108.80261 0 0 1 210.89972,290.19741"
            sodipodi:open="true"
            sodipodi:end="6.1674002"
            sodipodi:start="0"
            sodipodi:ry="108.80261"
            sodipodi:rx="166.88521"
            sodipodi:cy="302.767"
            sodipodi:cx="45.131908"
            sodipodi:type="arc"
            id="path4567"
            style="opacity:1;fill:#f2f2f2;fill-opacity:1;stroke:none;stroke-opacity:1" />
          <path
            style="opacity:1;fill:#f2f2f2;fill-opacity:1;stroke:none;stroke-opacity:1"
            id="path4571"
            sodipodi:type="arc"
            sodipodi:cx="263.55524"
            sodipodi:cy="297.85861"
            sodipodi:rx="166.88521"
            sodipodi:ry="108.80261"
            sodipodi:start="0"
            sodipodi:end="6.1674002"
            sodipodi:open="true"
            d="M 430.44044,297.85861 A 166.88521,108.80261 0 0 1 268.38527,406.61565 166.88521,108.80261 0 0 1 96.949612,304.15396 166.88521,108.80261 0 0 1 249.08133,189.46598 166.88521,108.80261 0 0 1 429.32305,285.28902" />
          <path
            d="M 562.96696,323.21863 A 166.88521,108.80261 0 0 1 400.91179,431.97566 166.88521,108.80261 0 0 1 229.47613,329.51397 166.88521,108.80261 0 0 1 381.60785,214.826 166.88521,108.80261 0 0 1 561.84957,310.64903"
            sodipodi:open="true"
            sodipodi:end="6.1674002"
            sodipodi:start="0"
            sodipodi:ry="108.80261"
            sodipodi:rx="166.88521"
            sodipodi:cy="323.21863"
            sodipodi:cx="396.08176"
            sodipodi:type="arc"
            id="path4573"
            style="opacity:1;fill:#f2f2f2;fill-opacity:1;stroke:none;stroke-opacity:1" />
          <path
            style="opacity:1;fill:#f2f2f2;fill-opacity:1;stroke:none;stroke-opacity:1"
            id="path4575"
            sodipodi:type="arc"
            sodipodi:cx="26.316423"
            sodipodi:cy="201.32695"
            sodipodi:rx="44.993546"
            sodipodi:ry="43.357422"
            sodipodi:start="0"
            sodipodi:end="6.1674002"
            sodipodi:open="true"
            d="M 71.309969,201.32695 A 44.993546,43.357422 0 0 1 27.618637,244.66621 44.993546,43.357422 0 0 1 -18.601744,203.83562 44.993546,43.357422 0 0 1 22.414145,158.1329 44.993546,43.357422 0 0 1 71.00871,196.31802" />
          <path
            d="M 131.0287,203.78114 A 44.993546,43.357422 0 0 1 87.33737,247.1204 44.993546,43.357422 0 0 1 41.116989,206.28981 44.993546,43.357422 0 0 1 82.132878,160.5871 44.993546,43.357422 0 0 1 130.72744,198.77221"
            sodipodi:open="true"
            sodipodi:end="6.1674002"
            sodipodi:start="0"
            sodipodi:ry="43.357422"
            sodipodi:rx="44.993546"
            sodipodi:cy="203.78114"
            sodipodi:cx="86.035156"
            sodipodi:type="arc"
            id="path4577"
            style="opacity:1;fill:#f2f2f2;fill-opacity:1;stroke:none;stroke-opacity:1" />
          <path
            style="opacity:1;fill:#f2f2f2;fill-opacity:1;stroke:none;stroke-opacity:1"
            id="path4579"
            sodipodi:type="arc"
            sodipodi:cx="168.65971"
            sodipodi:cy="189.87404"
            sodipodi:rx="44.993546"
            sodipodi:ry="43.357422"
            sodipodi:start="0"
            sodipodi:end="6.1674002"
            sodipodi:open="true"
            d="M 213.65326,189.87404 A 44.993546,43.357422 0 0 1 169.96193,233.2133 44.993546,43.357422 0 0 1 123.74155,192.38271 44.993546,43.357422 0 0 1 164.75744,146.67999 44.993546,43.357422 0 0 1 213.352,184.8651" />
          <path
            d="m 271.73587,192.32823 a 44.993546,43.357422 0 0 1 -43.69133,43.33926 44.993546,43.357422 0 0 1 -46.22038,-40.83059 44.993546,43.357422 0 0 1 41.01589,-45.70271 44.993546,43.357422 0 0 1 48.59456,38.18511"
            sodipodi:open="true"
            sodipodi:end="6.1674002"
            sodipodi:start="0"
            sodipodi:ry="43.357422"
            sodipodi:rx="44.993546"
            sodipodi:cy="192.32823"
            sodipodi:cx="226.74232"
            sodipodi:type="arc"
            id="path4581"
            style="opacity:1;fill:#f2f2f2;fill-opacity:1;stroke:none;stroke-opacity:1" />
          <path
            style="opacity:1;fill:#f2f2f2;fill-opacity:1;stroke:none;stroke-opacity:1"
            id="path4583"
            sodipodi:type="arc"
            sodipodi:cx="295.45978"
            sodipodi:cy="201.32695"
            sodipodi:rx="44.993546"
            sodipodi:ry="43.357422"
            sodipodi:start="0"
            sodipodi:end="6.1674002"
            sodipodi:open="true"
            d="m 340.45332,201.32695 a 44.993546,43.357422 0 0 1 -43.69133,43.33926 44.993546,43.357422 0 0 1 -46.22038,-40.83059 44.993546,43.357422 0 0 1 41.01589,-45.70272 44.993546,43.357422 0 0 1 48.59456,38.18512" />
          <path
            d="m 400.99013,212.77986 a 44.993546,43.357422 0 0 1 -43.69133,43.33926 44.993546,43.357422 0 0 1 -46.22039,-40.83059 44.993546,43.357422 0 0 1 41.01589,-45.70271 44.993546,43.357422 0 0 1 48.59457,38.18511"
            sodipodi:open="true"
            sodipodi:end="6.1674002"
            sodipodi:start="0"
            sodipodi:ry="43.357422"
            sodipodi:rx="44.993546"
            sodipodi:cy="212.77986"
            sodipodi:cx="355.99658"
            sodipodi:type="arc"
            id="path4585"
            style="opacity:1;fill:#f2f2f2;fill-opacity:1;stroke:none;stroke-opacity:1" />
          <path
            style="opacity:1;fill:#f2f2f2;fill-opacity:1;stroke:none;stroke-opacity:1"
            id="path4587"
            sodipodi:type="arc"
            sodipodi:cx="435.34888"
            sodipodi:cy="215.23405"
            sodipodi:rx="44.993546"
            sodipodi:ry="43.357422"
            sodipodi:start="0"
            sodipodi:end="6.1674002"
            sodipodi:open="true"
            d="m 480.34242,215.23405 a 44.993546,43.357422 0 0 1 -43.69133,43.33926 44.993546,43.357422 0 0 1 -46.22038,-40.83059 44.993546,43.357422 0 0 1 41.01589,-45.70271 44.993546,43.357422 0 0 1 48.59456,38.18511" />
          <path
            d="m 419.80562,190.69211 a 44.993546,43.357422 0 0 1 -43.69133,43.33926 44.993546,43.357422 0 0 1 -46.22038,-40.83059 44.993546,43.357422 0 0 1 41.01588,-45.70272 44.993546,43.357422 0 0 1 48.59457,38.18511"
            sodipodi:open="true"
            sodipodi:end="6.1674002"
            sodipodi:start="0"
            sodipodi:ry="43.357422"
            sodipodi:rx="44.993546"
            sodipodi:cy="190.69211"
            sodipodi:cx="374.81207"
            sodipodi:type="arc"
            id="path4589"
            style="opacity:1;fill:#f2f2f2;fill-opacity:1;stroke:none;stroke-opacity:1" />
          <path
            style="opacity:1;fill:#f2f2f2;fill-opacity:1;stroke:none;stroke-opacity:1"
            id="path4591"
            sodipodi:type="arc"
            sodipodi:cx="315.09332"
            sodipodi:cy="169.42242"
            sodipodi:rx="44.993546"
            sodipodi:ry="43.357422"
            sodipodi:start="0"
            sodipodi:end="6.1674002"
            sodipodi:open="true"
            d="m 360.08687,169.42242 a 44.993546,43.357422 0 0 1 -43.69133,43.33926 44.993546,43.357422 0 0 1 -46.22038,-40.83059 44.993546,43.357422 0 0 1 41.01588,-45.70271 44.993546,43.357422 0 0 1 48.59457,38.18511" />
          <path
            d="M 302.00426,150.60693 A 44.993546,43.357422 0 0 1 258.31293,193.94619 44.993546,43.357422 0 0 1 212.09254,153.1156 44.993546,43.357422 0 0 1 253.10843,107.41289 44.993546,43.357422 0 0 1 301.703,145.598"
            sodipodi:open="true"
            sodipodi:end="6.1674002"
            sodipodi:start="0"
            sodipodi:ry="43.357422"
            sodipodi:rx="44.993546"
            sodipodi:cy="150.60693"
            sodipodi:cx="257.01071"
            sodipodi:type="arc"
            id="path4593"
            style="opacity:1;fill:#f2f2f2;fill-opacity:1;stroke:none;stroke-opacity:1" />
          <path
            style="opacity:1;fill:#f2f2f2;fill-opacity:1;stroke:none;stroke-opacity:1"
            id="path4595"
            sodipodi:type="arc"
            sodipodi:cx="182.5668"
            sodipodi:cy="166.96823"
            sodipodi:rx="44.993546"
            sodipodi:ry="43.357422"
            sodipodi:start="0"
            sodipodi:end="6.1674002"
            sodipodi:open="true"
            d="m 227.56035,166.96823 a 44.993546,43.357422 0 0 1 -43.69133,43.33926 44.993546,43.357422 0 0 1 -46.22038,-40.83059 44.993546,43.357422 0 0 1 41.01588,-45.70271 44.993546,43.357422 0 0 1 48.59457,38.18511" />
          <path
            d="M 151.48032,140.79016 A 44.993546,43.357422 0 0 1 107.78898,184.12942 44.993546,43.357422 0 0 1 61.568603,143.29883 44.993546,43.357422 0 0 1 102.58449,97.596115 44.993546,43.357422 0 0 1 151.17906,135.78123"
            sodipodi:open="true"
            sodipodi:end="6.1674002"
            sodipodi:start="0"
            sodipodi:ry="43.357422"
            sodipodi:rx="44.993546"
            sodipodi:cy="140.79016"
            sodipodi:cx="106.48677"
            sodipodi:type="arc"
            id="path4597"
            style="opacity:1;fill:#f2f2f2;fill-opacity:1;stroke:none;stroke-opacity:1" />
          <path
            style="opacity:1;fill:#f2f2f2;fill-opacity:1;stroke:none;stroke-opacity:1"
            id="path4599"
            sodipodi:type="arc"
            sodipodi:cx="45.94997"
            sodipodi:cy="139.15404"
            sodipodi:rx="44.993546"
            sodipodi:ry="43.357422"
            sodipodi:start="0"
            sodipodi:end="6.1674002"
            sodipodi:open="true"
            d="M 90.943516,139.15404 A 44.993546,43.357422 0 0 1 47.252184,182.4933 44.993546,43.357422 0 0 1 1.0318027,141.66271 44.993546,43.357422 0 0 1 42.047692,95.959992 44.993546,43.357422 0 0 1 90.642257,134.1451" />
          <path
            d="M 131.84676,117.88435 A 44.993546,43.357422 0 0 1 88.155424,161.22361 44.993546,43.357422 0 0 1 41.935043,120.39302 44.993546,43.357422 0 0 1 82.950932,74.690308 44.993546,43.357422 0 0 1 131.5455,112.87542"
            sodipodi:open="true"
            sodipodi:end="6.1674002"
            sodipodi:start="0"
            sodipodi:ry="43.357422"
            sodipodi:rx="44.993546"
            sodipodi:cy="117.88435"
            sodipodi:cx="86.85321"
            sodipodi:type="arc"
            id="path4601"
            style="opacity:1;fill:#f2f2f2;fill-opacity:1;stroke:none;stroke-opacity:1" />
          <path
            style="opacity:1;fill:#f2f2f2;fill-opacity:1;stroke:none;stroke-opacity:1"
            id="path4603"
            sodipodi:type="arc"
            sodipodi:cx="-1.4977951"
            sodipodi:cy="180.05728"
            sodipodi:rx="44.993546"
            sodipodi:ry="43.357422"
            sodipodi:start="0"
            sodipodi:end="6.1674002"
            sodipodi:open="true"
            d="M 43.49575,180.05728 A 44.993546,43.357422 0 0 1 -0.19558135,223.39654 44.993546,43.357422 0 0 1 -46.415963,182.56595 44.993546,43.357422 0 0 1 -5.4000732,136.86324 44.993546,43.357422 0 0 1 43.194491,175.04835" />
          <path
            d="M 84.398994,110.52177 A 44.993546,43.357422 0 0 1 40.707663,153.86103 44.993546,43.357422 0 0 1 -5.5127187,113.03044 44.993546,43.357422 0 0 1 35.503171,67.327721 44.993546,43.357422 0 0 1 84.097735,105.51283"
            sodipodi:open="true"
            sodipodi:end="6.1674002"
            sodipodi:start="0"
            sodipodi:ry="43.357422"
            sodipodi:rx="44.993546"
            sodipodi:cy="110.52177"
            sodipodi:cx="39.405449"
            sodipodi:type="arc"
            id="path4605"
            style="opacity:1;fill:#f2f2f2;fill-opacity:1;stroke:none;stroke-opacity:1" />
        </g>
      </g>
    </g>
  </g>
</svg>
